/* XPM */
static char * Partyman_xpm[] = {
"50 50 42 1",
" 	c None",
".	c #000000",
"+	c #0F0000",
"@	c #0F0F00",
"#	c #3C0000",
"$	c #4C0000",
"%	c #5B0000",
"&	c #1F1F00",
"*	c #3D1000",
"=	c #6B0000",
"-	c #7A0000",
";	c #8A0000",
">	c #2F2F00",
",	c #9A0000",
"'	c #AA0000",
")	c #6C2000",
"!	c #4E3000",
"~	c #5D2F00",
"{	c #BA0000",
"]	c #3F3F00",
"^	c #105C00",
"/	c #C90000",
"(	c #DA0000",
"_	c #5E4000",
":	c #EA0000",
"<	c #4F4F00",
"[	c #5F5000",
"}	c #7D4100",
"|	c #5F5F00",
"1	c #6F6F00",
"2	c #00BA00",
"3	c #7F7F00",
"4	c #8F8F00",
"5	c #9F9F00",
"6	c #00FF00",
"7	c #AFAF00",
"8	c #BFBF00",
"9	c #CFCF00",
"0	c #DFDF00",
"a	c #EFEF00",
"b	c #FFFF00",
"c	c #FFFFFF",
"                    .....66...                    ",
"                 ........6666666.                 ",
"              .......]|3333|]666666.              ",
"            .....>49bbbbbccccc94>6666.            ",
"           ....|9bbbbbbbbcccccccc9|666.           ",
"         ....]0bbbbbbbbbbcccccccccc0]666.         ",
"        ...@7bbbbbbbbbbbbcccccccccccc7@66.        ",
"       ...>0bbbbbbbbbbbbbccccccccccccc0>66.       ",
"      ...>abbbbbbbbbbbbbbcccccccccccccca>66.      ",
"     ...>abbbbbbbbbbbbbbbccccccccccccccca>66.     ",
"     ..>abbbbbbb5@.4bbbbbccccc4.@5ccccccca>66     ",
"    ..@0bbbbbbb0....8bbbbcccc .... ccccccc0@6.    ",
"   ...5bbbbbbbb|....<bbbbcccc<....|cccccccc766.   ",
"   ..]bbbbbbbbb&.....abbbcccc.....@ccccccccc]66   ",
"  ...9bbbbbbbba......8bbbccc ...... cccccccc066.  ",
"  ..|bbbbbbbbb8......7bbbccc ...... ccccccccc|66  ",
"  ..8bbbbbbbbb8......3bbbccc ...... ccccccccc866  ",
" ..&bbbbbbbbbb8......5bbbccc ...... cccccccccc&6. ",
" ..1bbbbbbbbbb9......8bbbccc ...... cccccccccc166 ",
" ..8bbbbbbbbbbb......0bbbccc ......ccccccccccc866 ",
" ..bbbbbbbbbbbb<....&bbbbcccc>....<cccccccccccc66 ",
"..>bbbbbbbbbbbb8....5bbbbcccc5.... cccccccccccc>6.",
"..]bbbbbbbbbbbbb|..>bbbbbccccc .. ccccccccccccc]6.",
"..1bbbbbbbbbbbbbb88bbbbbbcccccc  cccccccccccccc166",
"..3bbbbbbbbbbbbbbbbbbbbbbcccccccccccccccccccccc366",
"..3bbbbbbbbbbbbbbbbbbbbbbcccccccccccccccccccccc3..",
"..|bbbbbbbbbbbbbbbbbbbbbbcccccccccccccccccccccc1..",
"..]bbbbbbbbbbbbbbbbbbbbbbcccccccccccccccccccccc]..",
"..&bbbbbbbbbbbbbbbbbbbbbbcccccccccccccccccccccc>..",
" ..bbbbbbbbbbbbbbbbbbbbbbcccccccccccccccccccccc.. ",
" ..7bbbbbbbbbbb85bbbbbbbbccccccccccccccccccccc8.. ",
" ..1bbbbbbbbbb0$-7bbbbb9bc9ccccc8^*ccccccccccc1.. ",
" ..&bbbbbbbbbba+:~7b05_;)^^|9cc0!6^ccccccccccc&.. ",
"  ..7bbbbbbbbbb<$('-;{:::66(^^^^6#]cccccccccc7..  ",
"  ..]bbbbbbbbbb9%%-::::::666666^^^8cccccccccc]..  ",
"  ...8bbbbbbbbbb5,/=%-'{{222^^^6^5cccccccccc8...  ",
"   ..>bbbbbbbbbbb5=:::{{{222666^5ccccccccccc>..   ",
"   ...4bbbbbbbbbbb0[=/:::666^^[9ccccccccccc4...   ",
"    ...9bbbbbbbbbbbb051}}}}150cccccccccccc9...    ",
"     ..@abbbbbbbbbbbbbbbbcccccccccccccccca&..     ",
"      ..>abbbbbbbbbbbbbbbccccccccccccccca>..      ",
"      ...>abbbbbbbbbbbbbbcccccccccccccca>...      ",
"       ...@9bbbbbbbbbbbbbccccccccccccc9@...       ",
"        ....3bbbbbbbbbbbbcccccccccccc3....        ",
"          ...>8bbbbbbbbbbcccccccccc8>...          ",
"           ....]7bbbbbbbbcccccccc7]....           ",
"             ....@|7abbbbcccca7|@....             ",
"              .......@]]|1]]@.......              ",
"                 ................                 ",
"                     ........                     "};
