/* XPM */
static char * SLART_xpm[] = {
"50 50 36 1",
" 	c None",
".	c #0000D8",
"+	c #0000FD",
"@	c #0000FE",
"#	c #0000FF",
"$	c #0000E4",
"%	c #0000F5",
"&	c #0000E7",
"*	c #0000FC",
"=	c #0000F8",
"-	c #0000E6",
";	c #0000F6",
">	c #0000F4",
",	c #0000EB",
"'	c #0000E5",
")	c #0000F9",
"!	c #0000EC",
"~	c #0000F2",
"{	c #0000ED",
"]	c #0000E3",
"^	c #0000FA",
"/	c #0000F7",
"(	c #0000DC",
"_	c #0000FB",
":	c #0000D6",
"<	c #0000F1",
"[	c #0000EF",
"}	c #0000EE",
"|	c #0000E8",
"1	c #0000F3",
"2	c #0000F0",
"3	c #0000DB",
"4	c #0000E2",
"5	c #0000DA",
"6	c #0000EA",
"7	c #0000DD",
"                                                  ",
"   .+                                             ",
"  @#+@                                            ",
"   $###%                                          ",
"   &*@@=-+                                        ",
"   %;######>@,                                    ",
"    '#+#####@##'#+)                               ",
"     !~##@####@#@#####{#@#]^*                     ",
"       @^##+@@#+#@#@#@#@@@/####                   ",
"       ;(##  ;#>@)@###@##@#@###_                  ",
"        #_#~     #^#@@~#@^#####-                  ",
"         {_{+*)      +:@=_###@###                 ",
"          <^^~><(#       )@@@###@_                ",
"          ##_    #=#^+]#    ^###*_)               ",
"           @;_       +#@>#[#*@*+@=_               ",
"            !^                   ,>{              ",
"            ##}                  ##|              ",
"             ~@=                  ~)@             ",
"              #[                   )#/            ",
"              )%#                  >+%+           ",
"               ;#_                  =++           ",
"                *@                   1*#          ",
"                %=#                  '^@#         ",
"                 2#                   =##_        ",
"                  2[                   [#<        ",
"                  3#+                  $#<;       ",
"                   _#                   ###>      ",
"                    #4                   1#_      ",
"                    *~                    !##     ",
"                     #@                 _,2##/    ",
"                     @+             5#@@#/@@#+5   ",
"                      +^           ;6#######@*<   ",
"                      #+          +**########+/[  ",
"                    /@_#1        )###@########*1  ",
"                  ##@#+#_+       +2_##########_@  ",
"                @*#%#@#@#2       #%^;#########+#  ",
"              [@###_#####_~      # =*#######@###  ",
"             <*#@#@#####@#4      #  ##@######/#@  ",
"             +############)      |%  }#{#####^}   ",
"            {+@##########@#      _>    $#####@    ",
"            1@############*       _^     _^>~     ",
"            +#############@       *#+     @;      ",
"            #^  @*2@######_        <+#+  &+       ",
"            %    +$####@##          #7*#@         ",
"            6_    =4#@##$                         ",
"             #      >###$                         ",
"             -[     .#+6                          ",
"              2[+##@+<                            ",
"               6>==##                             ",
"                                                  "};
